<?xml version="1.0" encoding="utf-8"?>
<svg version="1.1" id="Layer_1" xmlns="http://www.w3.org/2000/svg" xmlns:xlink="http://www.w3.org/1999/xlink" x="0px" y="0px"
	 viewBox="0 0 4000 365.97" enable-background="new 0 0 4000 365.97" xml:space="preserve">
<g>
	<path d="M1974.966,132.115c9.45,12.079,29.195,14.895,40.367,3.63c29.123-29.759,50.119-71.411,111.994-87.774
		c-9.695-31.651-56.717-45.634-91.373-10.796c-7.885-31.979-21.12-39.689-48.315-36.518c-17.617,2.222-25.753,21.279-28.257,36.768
		c-29.875-30.586-78.89-26.914-92.593,10.702C1916.549,60.845,1942.323,92.169,1974.966,132.115z"/>
	<path d="M1649.592,141.752c3.004,3.067,9.419,4.35,10.827-0.97c12.016-23.625,19.057-50.85,17.023-77.385
		c-3.036-25.66-33.921-36.017-55.481-26.723c-17.774,8.762-24.345,31.511-17.085,49.41
		C1614.263,108.301,1631.255,126.482,1649.592,141.752z"/>
	<path d="M2338.518,144.381c5.726,0.939,9.293-4.318,13.362-7.354c74.285-61.878,36.812-116.05-10.264-101.011
		c-10.608,3.411-18.838,12.298-21.685,23.031c-5.57,15.834-0.188,32.387,3.129,48.065
		C2326.626,120.036,2330.694,133.366,2338.518,144.381z"/>
	<path d="M1975.373,205.244c-12.642,0.219-25.346-0.657-37.957,0.282c-4.303,2.675-41.193,58.32-103.671,62.334
		c-56.514,3.339-123.098-45.825-118.753-101.198c8.103-111.167,151.874-104.066,148.387-28.257
		c-0.72,16.898-15.959,31.042-32.857,30.479c1.314-8.386,2.785-17.461-1.596-25.253c-8.887-16.866-35.798-18.431-47.251-3.536
		c-12.006,13.96-12.292,46.01,37.269,60.112c32.45,7.792,67.904-15.208,75.289-47.407c6.227-30.823-6.071-64.931-31.667-83.581
		c-66.417-46.061-186.435-9.498-191.789,111.212c-6.759-7.166-13.737-14.05-21.059-20.559
		c-34.922-30.948-71.722-64.243-119.066-73.411c-28.914-2.722-60.175-2.065-85.646,13.706c-35.106,25-52.192,68.836-32.137,111.744
		c19.245,38.521,74.506,52.665,110.179,29.07c19.464-12.235,26.723-38.959,18.024-59.799c-7.979-17.242-29.54-23.281-46.844-18.525
		c-13.894,5.163-23.469,21.373-19.276,35.986c1.314,8.418,7.01,14.989,12.329,21.31c-13.956-1.126-29.728-2.722-39.271-14.332
		c-19.902-22.562-10.952-60.738,13.456-76.353c20.684-14.801,47.846-11.985,71.565-8.355
		c79.626,22.92,94.814,107.85,193.228,160.059c43.59,20.903,94.69,25.284,141.44,13.362
		C1914.479,281.816,1951.998,246.737,1975.373,205.244z"/>
	<path d="M2462.935,87.21c-55.825,12.642-97.287,55.043-137.216,93.188c-2.034-48.503-27.975-97.819-72.817-119.411
		c-34.672-14.081-75.852-15.364-109.428,2.472c-32.732,16.992-49.348,58.641-39.209,93.688c8.793,26.41,36.205,47.063,64.587,44.153
		c34.707-2.101,65.767-30.717,49.066-58.109c-9.481-16.272-36.549-18.4-47.501-2.66c-7.698,7.604-5.57,18.994-3.912,28.507
		c-14.488-0.438-28.757-10.107-31.699-24.783c-8.832-58.554,68.802-80.978,115.812-43.778
		c32.346,27.642,50.684,95.212-2.034,136.621c-55.708,48.574-132.799,41.371-187.721-31.887c-12.861-0.063-25.753,0-38.614,0
		c23.375,42.995,63.961,77.667,111.681,90.152c97.639,22.108,169.756-18.935,232.813-96.317
		c20.184-27.318,44.904-51.788,74.319-69.062c19.652-11.484,42.964-12.736,65.181-11.39c53.666,5.429,69.278,65.249,37.488,91.717
		c-9.262,8.355-22.342,8.386-34.014,9.544c12.361-11.703,17.931-32.669,6.759-46.938c-10.514-15.083-32.919-14.332-47.407-6.008
		c-22.092,15.396-20.559,50.349-1.971,67.904c19.37,18.869,49.942,22.311,74.913,14.019c37.989-13.205,60.112-58.954,47.971-97.068
		C2573.228,94.114,2521.92,79.287,2462.935,87.21z"/>
	<path d="M256.876,151.922c-25.628-2.66-53.384-6.477-73.818-23.625c-20.559-17.523-35.141-43.12-34.014-70.783
		c-20.809,3.63-39.96,16.741-49.754,35.579c-7.385,16.303-1.658,34.421,5.82,49.535C68.53,141.783,25.472,143.911,0,174.17
		c23.085,21.485,43.591,33.077,105.642,30.917c-9.106,16.835-15.208,39.178-2.785,56.013c9.794,16.522,28.319,23.5,45.186,30.416
		c4.336-18.329-2.381-31.736,29.07-66.746c15.74-16.616,38.865-22.499,60.613-26.536c21.685-4.381,43.903-3.067,65.87-3.223
		c339.8-0.031,679.632,0.031,1019.432-0.031c-0.031-14.332-0.031-28.663-0.031-42.995
		C967.644,151.954,612.26,152.11,256.876,151.922z"/>
	<path d="M4000,174.734c-24.783-30.948-68.404-32.982-104.922-32.106c6.728-14.739,12.173-31.855,5.789-47.72
		c-8.198-20.559-29.258-33.326-50.193-37.644c-0.094,9.888,0.407,20.09-3.192,29.508c-10.139,24.596-29.071,46.719-54.855,55.418
		c-45.234,13.452,56.488,10.004-1115.405,9.794c-0.063,14.332-0.031,28.695,0,43.027c351.034,0,702.068-0.031,1053.103,0
		c24.783,0.876,49.911,5.101,72.723,15.114c19.432,8.887,32.199,27.036,41.9,45.342c6.164,10.921,5.351,23.751,6.383,35.829
		c20.152-6.165,40.711-17.68,49.535-37.895c6.54-15.99,0.907-33.545-6.196-48.252C3931.627,207.278,3973.026,203.116,4000,174.734z"
		/>
	<path d="M1342.617,194.229c12.235-0.031,24.47-0.031,36.705,0c0-14.081,0-28.163,0.031-42.213
		c-12.266-0.031-24.502-0.031-36.737-0.031C1342.554,166.066,1342.554,180.148,1342.617,194.229z"/>
	<path d="M2620.115,194.229c12.204-0.031,24.439-0.031,36.706,0c0.031-14.081,0.031-28.163,0-42.244c-12.266,0-24.502,0-36.706,0
		C2620.083,166.066,2620.083,180.148,2620.115,194.229z"/>
	<path d="M1927.747,155.083c-5.946,0.063-11.891,0-17.711,1.126c-9.482,1.408-15.458,11.046-16.053,19.996
		c-1.252,12.955,11.828,23.625,24.189,22.749c54.386-0.188,108.803,0.156,163.188-0.156c16.053-0.845,23.406-22.061,14.958-34.484
		C2090.527,151.49,2084.625,155.594,1927.747,155.083z"/>
	<path d="M2015.052,229.808c-9.325-9.794-27.099-9.2-36.393,0.344c-23.596,22.522-49.83,72.099-111.994,87.68
		c15.382,39.255,68.55,39.899,92.625,9.043c3.638,28.637,22.256,45.644,52.539,36.706c14.989-6.008,21.341-21.904,23.782-36.737
		c10.765,12.047,25.566,22.405,42.401,21.654c20.121,1.22,44.059-9.982,48.972-31.01
		C2065.554,303.378,2040.546,252.754,2015.052,229.808z"/>
</g>
</svg>
