<?xml version='1.0' encoding='utf-8'?>
<svg xmlns="http://www.w3.org/2000/svg" enable-background="new 0 0 2686.688 505.889" version="1.1" viewBox="0 0 2686.688 505.889">
	<path d="m1400.9 146.11c16.118-9.106 40.85-14.041 41.217-41.839 0.409-30.846-36.902-21.878-29.688 4.104 5.297 19.082-2.352 24.892-12.807 36.113-0.351 0.377-0.375 0.954-0.057 1.359 0.324 0.409 0.893 0.514 1.335 0.263z"/>
	<path d="m1285.8 146.11c0.454 0.255 1.016 0.14 1.335-0.263 0.785-1-0.457-1.793-2.582-4.037-25.161-26.502-0.638-34.629-12.863-50.712-8.176-10.751-27.397-8.814-27.105 13.173 0.366 27.816 25.152 32.764 41.215 41.839z"/>
	<path d="m1448 114.89c19.564-11.035 47.46-16.181 47.888-48.528 0.469-35.63-42.542-25.243-34.217 4.731 6.185 22.273-2.72 29.068-14.947 42.172-0.351 0.377-0.375 0.954-0.057 1.359 0.313 0.4 0.878 0.518 1.333 0.266z"/>
	<path d="m1238.7 114.89c0.455 0.252 1.02 0.134 1.333-0.266 0.785-1-0.404-1.745-2.998-4.474-29.48-31.036-0.758-40.295-14.98-59.005-9.418-12.385-31.577-10.239-31.242 15.217 0.427 32.342 28.314 37.487 47.887 48.528z"/>
	<path d="m2512 275.94c-64.212 0.265-145.8-3.779-232.63-11.36l-0.34-0.238-0.137 0.196c-6.237-0.545-12.498-1.107-18.784-1.689 52.311-3.386 198.38-8.556 201.34-58.401 1.741-29.462-29.559-29.832-37.678-14.575-6.094 11.442 2.217 27.353 17.594 20.976 13.025-5.4 6.783-19.429-0.866-20.016-5.048-0.374-11.484 4.168-8.966 5.476 0.499 0.257 1.123 0.041 1.404-0.44 0.438-0.751 4.209-3.362 7.71-2.92 5.161 0.655 10.859 11.429-0.081 15.971-13.827 5.74-19.952-8.661-14.947-18.061 7.111-13.351 35.356-13.689 33.744 13.469-2.865 48.214-150.77 53.294-201.34 56.567-13.259 0.859-8.082 1.048-27.123-0.861 8.765-18.857 5.393-41.861-9.168-55.607-38.411-36.266-93.804 22.684-119.5 40.409-29.258-4.047-55.43-8.148-77.128-12.072-12.526-39.093 25.612-58.716 47.165-43.384 15.278 10.865 16.887 37.968-8.873 39.925-20.762 1.576-21.294-20.482-12.578-25.74 5.35-3.231 13.221-1.905 14.253-1.071 0.453 0.364 1.111 0.29 1.47-0.159 2.125-2.622-9.878-4.739-16.802-0.56-10.456 6.314-9.389 31.361 13.817 29.616 27.43-2.082 26.99-31.573 9.926-43.712-22.829-16.237-62.753 4.038-50.701 44.662-53.686-9.824-43.573-10.133-109.3-31.306 8.029-61.449-78.539-134.82-136.26-61.591l1.452 1.481c72.356-54.856 114.77 6.246 120.08 55.431-82.994-25.98-159.75-43.517-229.77-52.519-1.675-17.737-10.176-33.03-25.37-45.566-33.149-27.356-89.751-4.893-89.535 38.543-60.319 0.904-123.17 10.06-177.42 35.206-5.414-17.609-17.331-31.207-33.305-40.569-15.671 9.179-27.808 22.677-33.309 40.568-54.262-25.15-117.13-34.301-177.42-35.206 0.11-22.139-16.438-43.856-43.058-49.22-38.497-7.753-68.738 23.331-71.846 56.243-70.009 9.002-146.76 26.538-229.75 52.516 5.351-49.523 47.911-110.14 120.08-55.428l1.452-1.481c-57.296-72.696-144.43-0.998-136.26 61.587-65.922 21.238-55.569 21.476-109.31 31.31 17.071-57.538-64.585-67.774-62.534-19.093 0.826 19.685 37.328 25.877 41.184 6.192 4.437-22.642-18.699-21.436-22.254-18.577-1.074 0.865 0.233 2.496 1.313 1.629 1.607-1.298 23.032-4.583 18.89 16.545-3.342 17.04-36.314 11.515-37.045-5.879-1.922-45.971 75.744-35.39 58.121 19.605-21.697 3.924-47.868 8.025-77.125 12.071-13.78-9.505-26.457-20.59-34.71-27.211-72.162-57.853-113.37 0.64-93.959 42.409-24.726 2.479-225.26-1.728-228.47-55.705-2.153-36.265 46.921-22.94 33.197 1.529-4.802 8.566-23.054 3.05-20.41-6.308 3.266-11.568 13.012-4.755 13.639-3.68 0.695 1.191 2.415 0.258 1.894-0.886-1.144-2.506-13.653-9.775-17.54 3.995-3.358 11.893 18.303 18.491 24.244 7.897 15.607-27.806-39.471-42.259-37.106-2.428 2.965 50.009 149.62 55.054 201.34 58.401-6.275 0.58-12.523 1.141-18.749 1.685l-0.133-0.19-0.33 0.231c-86.857 7.584-168.46 11.63-232.68 11.365-0.576-2e-3 -1.047 0.464-1.049 1.041-0.011 3.002 112.75 0.15 230.3-10.004l-26.469 18.51c-3.01-3.588-14.942-3.512-15.942-3.052-36.764 17.113-78.315 29.959-115.88 15.836-3.544-1.338-1.372 31.361 52.329 21.166-11.474 7.376-27.8 11.722-41.399 18.54-6.658 3.338-29.556 29.395-28.595 31.125 0.411 0.748-0.141 0.418 10.451 0.37 27.012-0.129 27.034 0.307 49.939-16.778 7.468-5.57 15.15-11.3 23.206-15.002-33.815 34.907-20.732 46.453-15.263 55.992 0.488 0.827 1.745 0.626 1.933-0.32 6.127-30.779 31.804-52.745 56.632-73.989 0.99-0.847 22.087-18.854 22.424-20.116 1.447-5.503 2.098-9.29 1.193-11.941l29.605-20.704c16.074-1.407 32.32-2.932 48.674-4.575 19.282 37.116 93.738 38.536 135.65 35.674-45.72 11.006-85.56 23.319-105.6 43.408-19.331-2.866-33.658 7.17-32.166 28.062-1.624 0.318-3.712 0.442-5.422 0.327 3.935-10.266-4.42-21.166-14.588-21.166-13.534 0-14.523 16.511-36.211 16.511-7.067 0-11.833-1.649-20.693-1.97 10.436 23.137 26.106 18.767 43.964 18.024 8.265 2.959 3.085 12.177-2.767 12.234-8.813-2.487-16.479-0.146-22.224 6.157-14.99 16.447-4.076 28.049-10.19 46.769-1.009 3.076-1.055 3.44-1.735 6.451 10.312-5.087 16.416-5.193 31.473-5.596 38.289-2.949 19.52-40.753 32.664-40.753 6.323 0 4.299 8.683 3.688 12.424-2.507 15.285-1.577 24.668 19.554 37.511 1.028-14.712-1.77-35.979 4.629-39.444 12.676-7.994 16.435-34.676-11.213-33.685 0.098-1.557 0.259-3.499 0.91-5.067 18.58 1.93 27.183-17.795 21.91-35.417 41.187-41.099 169.63-49.693 252.09-81.206 16.364-6.254 32.192-12.163 47.515-17.749 9.318 15.323 21.968 27.391 36.904 36.341-15.155 12.732-27.557 25.275-37.417 37.771-3.453-2.984-9.84-0.772-16.456 1.591-3.376 1.218-48.291 54.744-104.48 53.547-3.75-0.309 4.197 14.414 21.584 14.414 9.632 0 21.322-3.954 34.804-11.768-19.918 25.565-35.308 18.628-49.906 68.966-0.111 0.385 9e-3 0.803 0.309 1.071 0.64 0.57 30.933-9.797 35.847-14.836 12.032-12.337 20.344-30.613 32.629-42.484-20.343 44.122-4.193 50.695 4.137 57.888 0.725 0.628 1.856 0.019 1.72-0.938-7.824-55.103 52.571-106.2 41.167-125.8 9.942-12.664 22.524-25.382 37.966-38.303 38.305 21.978 103.92 30.026 194.34-14.339-28.142 35.863-41.633 81.463-38.956 82.164 0.545 0.146 1.126-0.177 1.276-0.747 8.594-32.9 23.072-60.567 41.575-83.354 0.141-0.071 0.73-0.363 1.569-0.786 0.64-1.018 1.296-1.955 2.528-3.338l1.232-0.751c0.125-0.382 0.172-0.533 0.287-0.858 6.205-6.234 18.374-14.754 35.173-23.693 39.663 22.01 100.21 15.59 111.84 11.625 26.08-8.795 59.136-21.091 100.47-21.291v2e-3c1.425 0.058 2.843 0.137 4.256 0.231-17.555 1.357-59.455 15.348-73.221 47.279-12.739 15.716-30.932 29.17-44.161 32.748-11.578-14.572-28.596-17.692-42.115-1.59-1.42-0.925-2.97-2.262-4.12-3.54 14.283-6.628 11.38-32.037-10.503-29.572-21.314-0.641-26.296-14.615-36.206-24.952-8.355 23.127 4.132 30.278 19.017 43.548 3.879 7.882-6.277 10.875-10.503 6.854-11.541-19.881-36.047-8.623-42.908-0.096-10.837 14.016-14.298 13.312-22.942 18.951 29.79 9.577 32.493 45.241 69.785 12.189 4.415-3.284 8.211-2.21 9.404 0.435 1.947 4.312-3.067 7.401-6.88 10.236-12.506 9.28-18.278 16.675-12.073 40.544 10.484-9.378 22.363-25.239 29.675-25.239 0.15 0 2.81 0.525 4.792 0.525 14.601 0 30.333-15.514 11.712-32.37 1.154-1.049 2.621-2.332 4.18-3.005 12.112 14.463 32.343 6.068 40.848-11.072 12.443-3.574 28.333-14.842 40.873-28.867-10.845 34.524 9.443 75.898 45.508 75.898 19.316 0 38.106-11.908 43.633-31.018 7.8-26.982-16.185-58.756-46.836-38.199-25.944 17.401-5.987 44.762 10.087 42.721 10.652-1.354 20.896-13.13 17.277-13.954-0.562-0.128-1.121 0.226-1.248 0.79-0.418 1.857-7.588 9.983-16.293 11.089-14.098 1.795-32.591-22.861-8.657-38.911 29.267-19.627 50.829 11.105 43.664 35.882-7.24 25.036-38.173 36.428-60.246 25.185-24.925-12.695-34.247-47.552-22.967-74.102 0.314-0.389 0.554-0.604 0.484-1.121 11.882-26.354 39.344-36.748 60.351-43.586 12.276-2.853 26.158-2.756 41.864 1.599 7.937 21.249 16.422 29.295 29.624 46.528 13.23-17.27 21.676-25.249 29.624-46.527 47.984-13.307 90.669 16.367 102.22 41.98-0.074 0.522 0.171 0.742 0.491 1.139 18.147 42.738-16.672 93.337-59.899 74.592-46.352-20.103-20.292-88.82 20.345-61.568 23.967 16.072 5.287 40.686-8.659 38.911-8.705-1.106-15.875-9.232-16.293-11.089-0.128-0.564-0.688-0.919-1.25-0.79-3.632 0.828 6.639 12.602 17.277 13.954 16.098 2.044 36.018-25.333 10.088-42.721-30.655-20.56-54.634 11.221-46.836 38.199 5.527 19.11 24.318 31.018 43.633 31.018 36.097 0 56.334-41.436 45.516-75.889 12.539 14.022 28.424 25.286 40.865 28.859 8.434 16.991 28.677 25.606 40.848 11.072 1.559 0.673 3.026 1.955 4.18 3.005-20.474 18.533 0.621 35.116 15.398 31.991 7.027-1.945 19.834 15.302 30.781 25.094 8.167-31.411-5.866-34.585-17.645-44.92-3.375-3.88-1.319-8.335 2.8-8.335 9.58 0 22.197 29.67 48.589 7.742 11.169-10.263 15.638-14.402 26.491-17.891-8.684-5.666-12.114-4.946-22.942-18.951-6.723-8.355-31.291-19.916-42.908 0.096-4.21 4.007-14.393 1.05-10.503-6.854 14.671-13.079 27.424-20.272 19.017-43.548-12.368 12.9-14.634 24.789-39.046 24.789-19.356 0-21.24 23.435-7.664 29.736-1.15 1.278-2.7 2.615-4.12 3.54-13.568-16.161-30.608-12.892-42.115 1.59-13.226-3.577-31.413-17.025-44.151-32.736-11.369-26.386-46.174-45.201-73.229-47.291 1.412-0.094 2.829-0.173 4.253-0.231v-2e-3c69.439 0.337 79.469 25.319 139.99 25.319 24.261 0 51.205-3.933 72.327-15.656 16.804 8.942 28.977 17.463 35.182 23.697 0.096 0.271 0.198 0.585 0.287 0.858l1.232 0.751c1.239 1.391 1.886 2.316 2.528 3.338 0.824 0.415 1.482 0.743 1.554 0.779 18.506 22.789 32.986 50.458 41.581 83.361 0.147 0.568 0.73 0.893 1.276 0.747 2.418-0.633-9.875-45.108-38.963-82.171 90.387 44.35 156.01 36.345 194.35 14.35 15.439 12.919 28.019 25.635 37.96 38.297-1.443 2.477-1.905 6.278-2.272 10.823-0.101 1.299 13.921 25.415 14.501 26.415 16.395 28.266 33.348 57.492 28.937 88.56-0.133 0.945 0.98 1.574 1.72 0.938 8.328-7.192 24.481-13.764 4.137-57.888 6.375 6.16 11.725 14.109 16.928 21.836 15.979 23.75 16.274 23.361 41.567 32.37 6.554 2.336 11.05 4.68 10.29 2.042-14.589-50.306-30.045-43.475-49.906-68.966 47.772 27.689 60.112-2.952 56.388-2.645-56.076 1.195-101.25-52.382-104.48-53.547-8.498-3.034-13.436-4.199-16.454-1.592-9.858-12.493-22.259-25.036-37.411-37.765 14.873-8.911 27.551-20.957 36.907-36.341 67.085 24.456 62.153 26.076 156.79 47.385 60.52 13.625 117.7 26.514 142.81 51.568-5.264 17.593 3.311 37.348 21.91 35.415 0.651 1.568 0.812 3.51 0.91 5.067-27.757-0.995-23.817 25.737-11.213 33.685 6.395 3.463 3.594 24.624 4.629 39.444l1.463-0.891c26.277-16.042 18.247-29.813 17.135-43.64 0.378-7.018 8.762-7.757 10.194 1.117 3.714 49.579 31.794 26.605 56.621 38.858l1.964 0.969c-0.677-2.994-0.715-3.325-1.735-6.451-6.284-19.241 5.029-30.07-10.19-46.769-5.74-6.298-13.4-8.648-22.224-6.157-5.853-0.057-11.033-9.275-2.767-12.234 17.887 0.745 33.526 5.118 43.964-18.024-8.855 0.321-13.627 1.97-20.691 1.97-21.67 0-22.708-16.511-36.211-16.511-10.131 0-18.537 10.863-14.588 21.166-1.709 0.115-3.797-9e-3 -5.422-0.327 1.526-21.353-13.447-30.838-32.167-28.062-20.036-20.09-59.877-32.402-105.6-43.408 41.742 2.851 116.34 1.498 135.65-35.674 16.371 1.645 32.635 3.172 48.726 4.58l29.561 20.673c-7.403 21.354 69.261 50.929 80.238 106.07 0.188 0.948 1.45 1.147 1.934 0.32 5.467-9.533 18.554-21.083-15.263-55.992 8.056 3.701 15.737 9.432 23.206 15.002 22.951 17.12 23.083 16.65 49.939 16.778 10.592 0.048 10.04 0.378 10.451-0.37 0.974-1.753-21.962-27.8-28.595-31.125-13.6-6.818-29.923-11.162-41.399-18.54 53.352 10.129 56.144-22.605 52.329-21.166-37.534 14.113-79.057 1.303-115.88-15.836-1-0.46-12.904-0.531-15.923 3.031l-26.433-18.485c119.1 10.287 230.26 12.907 230.25 10 2e-3 -0.567-0.454-1.044-1.046-1.044zm-291.71-69.991c14.084 13.294 17.185 35.683 8.391 53.865-40.48-4.082-82.931-9.007-123.41-14.559 23.479-16.524 78.266-74.009 115.02-39.306zm-120.64 40.636c-15.824 10.566-32.813 18.594-46.185 15.216-13.034-3.291-22.82-14.034-27.582-26.781 20.937 3.767 45.935 7.69 73.767 11.565zm-244.24 28.072c-37.163-29.866-89.493-60.863-159.63-94.765 54.074 13.474 117.92 32.939 194.71 60.679-7.559 13.967-19.546 25.495-35.083 34.086zm-1.992 1.077c-46.104 24.285-126.96 23.729-193.9-16.385-0.677-0.788-1.367-1.565-2.056-2.344-3.566-8.42-13.104-18.287-26.747-28.133 16.176-12.272 30.085-36.979 35.38-56.005 43.689 9.769 143.74 68.002 187.32 102.87zm-510.06-65.13c-10.811-7.447-22.316-13.69-34.466-18.734 0.194-5.704 0.985-11.384 2.481-16.926 11.382 5.393 22.058 11.365 31.986 17.911 9.927-6.545 20.603-12.517 31.983-17.909 1.496 5.542 2.287 11.221 2.481 16.925-12.15 5.043-23.654 11.285-34.465 18.733zm-314.09 46.384c-0.697 0.787-1.394 1.573-2.079 2.37-66.919 40.094-147.76 40.674-193.88 16.373 40.123-32.101 141.37-92.593 187.31-102.86 5.289 19.005 19.198 43.731 35.386 56.01-13.63 9.837-23.162 19.696-26.733 28.111zm-197.96 17.667c-15.535-8.592-27.522-20.121-35.08-34.087 76.789-27.74 140.63-47.204 194.71-60.678-70.134 33.902-122.46 64.898-159.63 94.765zm512.05-54.574c11.028-6.975 22.48-12.403 34.067-16.57-0.881 8.912-3.035 17.69-6.022 25.899-9.867 2.81-19.261 6.565-28.052 11.224-8.792-4.659-18.185-8.414-28.051-11.224-2.987-8.21-5.142-16.99-6.023-25.904 11.592 4.169 23.049 9.598 34.081 16.575zm555.61-21.471c1.179 13.951-0.703 26.593-7.518 40.081-85.582-30.955-159.87-53.408-224.81-67.944 2.284-8.999 3.001-17.141 2.519-24.783 70.011 9.032 146.79 26.612 229.81 52.646zm-339.8-45.691c-1.536-4.24-2.657-8.969-2.922-14.046 22.083-0.261 45.06 0.567 68.904 2.476 2.109 7.503 0.338 14.301-4.612 20.123-21.883-3.87-42.084-6.649-61.37-8.553zm59.591 10.465c-13.705 13.498-47.125 19.924-58.714-8.2 17.96 1.811 37.419 4.463 58.714 8.2zm8.601-21.855c12.977 1.072 26.208 2.462 39.693 4.172 0.606 7.872-0.164 16.115-2.328 24.617-14.38-3.193-28.299-5.995-41.782-8.414 4.59-5.969 6.261-13.085 4.417-20.375zm14.927-41.644c14.556 12.01 22.75 26.965 24.585 43.689-13.631-1.722-27.004-3.118-40.118-4.19-12.236-39.668-50.96-10.765-45.713-8.402 0.527 0.237 1.145 4e-3 1.383-0.523 0.997-2.219 12.004-10.545 23.104-9.704 8.847 0.673 15.222 6.875 18.975 18.445-23.632-1.869-46.413-2.677-68.32-2.417-0.185-41.776 54.32-63.125 86.104-36.898zm-88.141 39.02c0.251 4.955 1.283 9.592 2.723 13.787-45.902-4.381-81.957-3.268-114.17-0.927 36.508-8.656 73.928-12.298 111.45-12.86zm-115.58 13.868l0.106 1.389c33.345-2.551 70.764-3.916 119.03 0.79 12.345 31.586 49.748 24.021 63.619 8.885 13.515 2.41 27.764 5.255 42.836 8.598-5.197 18.556-19.129 43.175-35.228 55.17-68.454-48.152-172.62-67.28-249.07-36.575-0.244-5.72-1.075-11.415-2.602-16.975 18.622-8.657 39.111-15.77 61.31-21.282zm-95.208-18.924c14.976 9.102 26.255 22.106 31.401 39.065-11.146 5.265-21.63 11.079-31.401 17.441-9.772-6.362-20.256-12.176-31.402-17.441 5.138-16.932 16.41-29.957 31.402-39.065zm-36.504 57.179c-78.429-31.5-183.23-9.731-249.07 36.581-16.123-12.011-30.051-36.669-35.234-55.175 15.072-3.343 29.321-6.188 42.836-8.598 13.7 14.95 51.144 23.029 63.619-8.885 48.268-4.706 85.687-3.341 119.03-0.79l0.106-1.39c22.199 5.512 42.688 12.624 61.31 21.28-1.527 5.562-2.359 11.256-2.603 16.977zm-287.2-45.326c13.485-1.71 26.716-3.1 39.693-4.172-1.845 7.29-0.174 14.406 4.418 20.375-13.483 2.419-27.402 5.221-41.782 8.414-2.165-8.503-2.936-16.746-2.329-24.617zm46.513 15.77c-5.015-5.899-6.698-12.724-4.612-20.123 23.844-1.908 46.821-2.737 68.904-2.476-0.265 5.077-1.385 9.807-2.922 14.046-20.47 2.021-40.76 4.909-61.37 8.553zm60.495-6.288c-11.428 27.732-44.711 21.991-58.714 8.2 21.294-3.737 40.752-6.389 58.714-8.2zm117.35-3.418c-32.214-2.342-68.272-3.455-114.18 0.926 1.44-4.195 2.471-8.832 2.723-13.787 37.52 0.561 74.943 4.203 111.46 12.861zm-113.49-14.984c-21.907-0.259-44.688 0.548-68.32 2.417 10.671-32.892 40.307-12.683 42.079-8.74 0.566 1.257 2.474 0.404 1.905-0.86-2.55-5.665-35.124-26.235-46.235 9.784-13.114 1.072-26.487 2.468-40.118 4.191 8.141-74.158 110.97-69.173 110.69-6.792zm-112.97 9.182c-0.483 7.647 0.236 15.788 2.519 24.782-64.942 14.535-139.22 36.987-224.8 67.94-6.791-13.442-8.699-26.07-7.514-40.08 83.017-26.03 159.79-43.609 229.8-52.642zm-356.72 89.057c-4.776 12.782-14.581 23.497-27.582 26.78-13.372 3.378-30.361-4.65-46.184-15.215 27.833-3.876 52.829-7.798 73.766-11.565zm-105.52-10.162c7.311 6.041 16.392 13.54 26.136 20.397-40.465 5.55-82.917 10.475-123.41 14.559-18.655-38.57 17.251-101.12 97.275-34.956zm50.583 69.685c-1.541-0.157-121.28 14.422-146.83-32.733 40.516-4.096 83.539-9.083 124.92-14.797 13.667 9.338 33.75 20.859 49.785 16.816 14.127-3.567 24.644-15.38 29.45-29.24 54.863-9.987 45.202-10.463 110.33-31.46 2.068 13.836 6.62 26.871 13.414 38.573-83.069 30.32-52.439 23.068-181.07 52.841zm700.64-67.349c-0.256-1.275-24.34-3.66-27.891-3.66-41.476 0-75.585 12.639-101.58 21.405-9.098 3.1-68.401 10.879-108.94-10.815 67.877-35.407 164.41-57.161 239.02-31.368 0.794 8.919 2.839 17.715 5.723 25.973-2.09-0.557-4.205-1.063-6.336-1.535zm36.83 47.045c-11.425-14.815-19.435-22.605-27.136-42.393 9.548 2.828 18.632 6.566 27.136 11.162 8.504-4.596 17.588-8.334 27.136-11.162-7.669 19.705-15.54 27.355-27.136 42.393zm166.29-29.3c-1.002-0.338-74.321-26.587-101.77-21.367-2.396 0.106-27.377 2.054-27.693 3.621-2.133 0.472-4.251 0.979-6.344 1.537 2.884-8.257 4.929-17.051 5.724-25.969 75.519-26.115 172.49-3.349 239.03 31.359-38.904 20.822-97.541 14.707-108.95 10.819zm571.17 49.604c-126.16-29.202-95.947-21.771-181.06-52.837 6.795-11.702 11.347-24.737 13.417-38.574 65.18 21.013 55.502 21.478 110.32 31.457 6.697 19.312 22.343 30.077 36.483 30.077 13.245-1e-3 28.587-7.974 42.752-17.652 41.392 5.715 84.409 10.701 124.92 14.797-25.563 47.175-144.52 32.494-146.84 32.732z"/>
	<path d="m1701 355.47c-48.985 12.78-45.586 39.748-43.84 40.8 9.508 5.727 38.135-0.343 45.131-39.605 0.135-0.738-0.543-1.388-1.291-1.195z"/>
	<path d="m984.38 356.66c8.342 46.805 45.409 43.768 45.637 38.763 1.599-30.614-46.258-42.346-45.637-38.763z"/>
	<path d="m1706.5 383.99c-26.064 47.747-18.669 79.964 1.279 78.008 29.384-1.903 15.998-48.358-1.279-78.008z"/>
	<path d="m980.18 383.99c-23.765 40.771-25.778 78.076 0.4 78.09 19.73-3e-3 23.652-34.093-0.4-78.09z"/>
	<path d="m1711.6 357.23c8.278 46.505 45.354 44.073 45.631 38.768 1.615-30.768-46.242-42.163-45.631-38.768z"/>
	<path d="m973.84 356.04c-30.395 7.935-45.313 21.382-44.336 39.965 0.086 1.782 5.682 2.691 8.369 2.69 28.92 3e-3 41.234-44.011 35.967-42.655z"/>
	<path d="m2516.9 282.29c-1 0.918 5.287 47.481 36.062 48.273 1.753 0 5.723-8.545 1.56-20.019-7.917-21.81-36.408-29.378-37.622-28.254z"/>
	<path d="m132.13 310.54c-4.145 11.424-0.197 20.024 1.532 20.02 30.087-0.071 37.093-47.347 36.09-48.274-1.014-0.938-29.532 5.977-37.622 28.254z"/>
	<path d="m2545.5 279.99c44.065 28.73 78.278 25.617 77.872 4.805 0.398-30.399-48.579-18.941-77.872-4.805z"/>
	<path d="m141.22 279.99c-43.549-21.03-78.189-18.699-77.872 4.803-0.398 20.675 33.562 24.064 77.872-4.803z"/>
	<path d="m2519.2 272.87c39.402-3.88 48.053-31.818 43.008-41.901-0.646-1.294-27.204-8.267-44.097 40.519-0.257 0.738 0.369 1.475 1.089 1.382z"/>
	<path d="m168.59 271.49c-16.532-47.74-43.174-42.358-44.098-40.517-1.98 3.955-2.011 11.503 2.375 19.451 10.903 19.751 43.236 25.465 41.723 21.066z"/>
</svg>